<svg xmlns="http://www.w3.org/2000/svg" viewBox="0 0 39 46.83"><defs><style>.cls-1,.cls-2{fill:#fff;}.cls-2{opacity:0.42;}</style></defs><title>RFlogo</title><g id="Layer_2" data-name="Layer 2"><g id="Layer_1-2" data-name="Layer 1"><path class="cls-1" d="M36.66,21l-8.49-4.9a6.37,6.37,0,0,1-1,10.49l-.95.56-.08,0L11.38,35.84a2.47,2.47,0,0,1-3.7-2.14v-20q-.12-.66-.28-1.34-.09-.37-.19-.74C5.79,6.26,3,2,0,0V42.13a4.69,4.69,0,0,0,7,4.06L36.66,29.09A4.69,4.69,0,0,0,36.66,21Z"/><path class="cls-2" d="M28.17,16.06,2.53,1.26A22.5,22.5,0,0,1,8.17,11.64q.18.67.32,1.34l17.7,9.91a2.47,2.47,0,0,1,0,4.28l1-.61A6.37,6.37,0,0,0,28.17,16.06Z"/></g></g></svg>